<svg width="500" height="500" xmlns="http://www.w3.org/2000/svg" version="1.1">
 <g>
  <title>Layer 1</title>
  <path d="m57,50c-0.19336,0.82242 -0.38672,1.64484 -0.58594,2.49219c-0.54451,2.33437 -1.08183,4.67043 -1.61328,7.00781c-0.46334,2.02514 -0.93856,4.04779 -1.44531,6.0625c-1.74854,7.44703 -1.53796,14.83369 -1.35547,22.4375c3.42579,-3.1754 3.42579,-3.1754 6,-7c0.66,0 1.32,0 2,0c0,-0.66 0,-1.32 0,-2c0.66,0 1.32,0 2,0c0.495,-1.485 0.495,-1.485 1,-3c3.44444,-3 3.44444,-3 6,-3c0.33,-0.66 0.66,-1.32 1,-2c2.28516,-0.41406 2.28516,-0.41406 5.0625,-0.625c0.9191,-0.07477 1.8382,-0.14953 2.78516,-0.22656c0.71027,-0.04899 1.42054,-0.09797 2.15234,-0.14844c1.53842,3.07684 0.33688,5.89993 -0.375,9.125c-2.04216,9.78348 -2.76239,18.86054 -2.625,28.875c-0.66,0 -1.32,0 -2,0c0,41.25 0,82.5 0,125c3.21926,-9.90368 3.21926,-9.90368 3,-16c0.33,-0.33 0.66,-0.66 1,-1c1.05973,-7.16111 1.11946,-14.36798 1.02734,-21.58984c-0.01455,-2.00879 -0.02853,-4.01758 -0.04199,-6.02637c-0.00834,-1.03347 -0.01668,-2.06693 -0.02527,-3.13171c-0.1051,-14.8444 -0.20142,-29.68406 0.78992,-44.50208c0.06179,-1.04793 0.12359,-2.09585 0.18726,-3.17554c0.94067,-11.88816 4.4634,-23.15939 13.06274,-31.57446c0.84176,-0.87398 1.68352,-1.74797 2.55078,-2.64844c9.87789,-9.75214 22.72615,-16.73671 36.85547,-17.54687c1.02094,0.0232 2.04188,0.0464 3.09375,0.07031c1.56234,0.02707 1.56234,0.02707 3.15625,0.05469c0.77344,0.0232 1.54688,0.0464 2.34375,0.07031c-1.28951,4.11182 -2.84892,7.88651 -4.75,11.75c-6.32403,13.60671 -10.11068,27.42487 -12.25,42.25c0.66,0 1.32,0 2,0c0.23719,-0.88172 0.47437,-1.76344 0.71875,-2.67187c1.41622,-3.67873 3.0869,-5.72632 5.78125,-8.57813c0.79406,-0.85078 1.58813,-1.70156 2.40625,-2.57812c8.14877,-8.45283 18.70244,-10.60299 30.09375,-11.17188c2.44141,0.46094 2.44141,0.46094 4,1c-0.18176,0.59426 -0.36352,1.18852 -0.55078,1.80078c-0.53764,1.77282 -1.06822,3.54778 -1.59375,5.32422c-0.52224,1.75509 -1.05796,3.50634 -1.61719,5.25c-4.2356,13.98422 -5.8994,29.05585 -5.23828,43.625c0.66,0.33 1.32,0.66 2,1c0.92812,-1.05187 0.92812,-1.05187 1.875,-2.125c5.40312,-5.41856 13.68294,-10.70738 21.4375,-11c0.88688,0.04125 1.77375,0.0825 2.6875,0.125c-0.57933,4.24843 -1.2564,8.46451 -2,12.6875c-4.12844,25.04794 -1.78479,51.04483 -1,76.3125c0.33,0 0.66,0 1,0c0.08227,3.04387 -0.02392,5.07175 -1,8c-0.66,0 -1.32,0 -2,0c0.04641,0.89461 0.09281,1.78922 0.14063,2.71094c0.24524,8.21574 -0.66598,13.91785 -4.14063,21.28906c-0.63176,1.63544 -1.23736,3.2813 -1.8125,4.9375c-0.25395,0.71027 -0.50789,1.42055 -0.76953,2.15234c-0.63369,2.11586 -0.63369,2.11586 0.58203,4.91016c0.78891,0.59813 1.57781,1.19625 2.39063,1.8125c5.84337,4.89864 7.70251,13.78142 8.60937,21.125c0.3281,6.83534 -0.02872,16.55033 -4.60937,21.96484c-0.45891,0.36223 -0.91782,0.72446 -1.39063,1.09766c-1.13932,-1.72526 -2.27865,-3.45052 -3.41797,-5.17578c-2.38812,-2.75371 -4.81449,-4.54758 -8.49788,-5.12407c-2.29845,-0.14233 -4.58214,-0.1936 -6.88493,-0.21187c-0.83638,-0.01795 -1.67275,-0.0359 -2.53447,-0.0544c-2.65903,-0.05398 -5.31789,-0.08795 -7.97725,-0.12138c-1.80797,-0.03318 -3.61591,-0.06767 -5.42383,-0.10352c-4.42109,-0.08479 -8.84214,-0.15166 -13.26367,-0.20898c-0.17958,0.71285 -0.35917,1.4257 -0.54419,2.16016c-4.59409,17.62329 -14.51103,35.26862 -30.34961,45.03808c-9.01087,5.28363 -18.64947,8.82904 -29.1062,9.80176c0.20496,-0.66387 0.40992,-1.32773 0.62109,-2.01172c0.26942,-0.88301 0.53883,-1.76601 0.81641,-2.67578c0.26684,-0.87012 0.53367,-1.74023 0.80859,-2.63672c3.95168,-14.02538 1.65515,-27.06316 -5.24609,-39.67578c-0.33,0 -0.66,0 -1,0c-0.96528,5.1362 -1.9253,10.27336 -2.88086,15.41138c-0.32447,1.74081 -0.65027,3.48138 -0.97754,5.22168c-1.84383,9.81018 -3.54288,19.56862 -4.63623,29.49365c-0.50537,2.87329 -0.50537,2.87329 -2.50537,5.87329c-1.11395,5.91655 -1.11112,11.99937 -1,18c-3.4001,-0.41213 -5.62633,-1.33213 -8.4375,-3.1875c-3.41277,-2.20356 -3.41277,-2.20356 -6.875,-1.125c-1.56557,0.76458 -3.12914,1.53332 -4.6875,2.3125c-1.23943,-0.0348 -1.23943,-0.0348 -2.50391,-0.07031c-5.07744,-0.09079 -8.28696,-0.05761 -12.11328,3.51172c-1.511,1.95107 -2.96468,3.94836 -4.34765,5.99218c-2.23224,2.81494 -3.65216,3.54649 -7.03516,4.56641c-0.66,0.33 -1.32,0.66 -2,1c0,-18.48 0,-36.96 0,-56c7.26,0.33 14.52,0.66 22,1c1.31158,2.62315 0.8965,4.23033 0.5625,7.125c-0.10184,0.91008 -0.20367,1.82016 -0.30859,2.75781c-0.08379,0.69867 -0.16758,1.39735 -0.25391,2.11719c2.97,-0.66 5.94,-1.32 9,-2c0,2.97 0,5.94 0,9c0.66,-0.33 1.32,-0.66 2,-1c-0.33,-0.66 -0.66,-1.32 -1,-2c-0.03999,-1.9996 -0.04347,-4.00047 0,-6c2.97,-0.99 5.94,-1.98 9,-3c0.66,-3.3 1.32,-6.6 2,-10c-0.73863,-0.12117 -1.47727,-0.24234 -2.23828,-0.36719c-1.01449,-0.16758 -2.02899,-0.33515 -3.07422,-0.50781c-1.66096,-0.27264 -1.66096,-0.27264 -3.35547,-0.55078c-1.98716,-0.34246 -3.97102,-0.70698 -5.94531,-1.11719c-5.96971,-1.23479 -11.87366,-1.78915 -17.94922,-2.14453c-0.79874,-0.04842 -1.59747,-0.09684 -2.42041,-0.14673c-4.1353,-0.33316 -4.1353,-0.33316 -8.01709,0.83423c0,-2.97 0,-5.94 0,-9c0.66,0 1.32,0 2,0c0.12375,-1.60875 0.12375,-1.60875 0.25,-3.25c0.75,-3.75 0.75,-3.75 2.375,-6.25c2.375,-1.5 2.375,-1.5 6.125,-1.25c1.60875,0.37125 1.60875,0.37125 3.25,0.75c0,-0.66 0,-1.32 0,-2c-4.62,0.33 -9.24,0.66 -14,1c0,-13.2 0,-26.4 0,-40c12.20364,1.74338 22.02876,5.4657 32.19531,12.23047c3.94639,2.48985 6.6756,3.76953 11.36719,3.76953c3.59013,-0.71773 3.59013,-0.71773 5.75,-3.5625c3.90678,-7.95826 4.22797,-16.2174 4.8125,-24.9375c0.08637,-1.20398 0.17273,-2.40797 0.26172,-3.64844c0.21072,-2.95013 0.41497,-5.90057 0.61328,-8.85156c-0.66,0.33 -1.32,0.66 -2,1c-0.54683,1.97803 -0.54683,1.97803 -0.81641,4.375c-0.12439,0.90363 -0.24879,1.80727 -0.37695,2.73828c-0.12182,0.95262 -0.24363,1.90524 -0.36914,2.88672c-0.12568,0.92168 -0.25137,1.84336 -0.38086,2.79297c-0.7714,5.72692 -1.43855,11.46171 -2.05664,17.20703c-0.66,0 -1.32,0 -2,0c0.495,1.485 0.495,1.485 1,3c-3,2 -3,2 -6.375,1.75c-7.53046,-1.55803 -7.53046,-1.55803 -9.94141,-4.18359c-2.11827,-1.97083 -4.17177,-2.73728 -6.87109,-3.75391c-1.35158,-0.51627 -1.35158,-0.51627 -2.73047,-1.04297c-0.68707,-0.25394 -1.37414,-0.50789 -2.08203,-0.76953c0.09281,-1.76344 0.09281,-1.76344 0.1875,-3.5625c0.02394,-4.4771 -1.19959,-7.46169 -3.1875,-11.4375c-2.16874,0.50604 -3.99968,0.99984 -6,2c-0.46651,2.12577 -0.46651,2.12577 -0.625,4.5625c-0.07477,0.82629 -0.14953,1.65258 -0.22656,2.50391c-0.07348,0.95713 -0.07348,0.95713 -0.14844,1.93359c-0.99,-0.33 -1.98,-0.66 -3,-1c-0.10303,-5.15146 0.09569,-9.91325 1,-15c0.03703,-1.99966 0.04761,-4.00057 0,-6c-0.66,-0.33 -1.32,-0.66 -2,-1c-0.28875,-0.94875 -0.5775,-1.8975 -0.875,-2.875c-0.82793,-3.2107 -0.82793,-3.2107 -3.25,-4.6875c-0.61875,-0.47438 -1.2375,-0.94875 -1.875,-1.4375c-0.25,-2.6875 -0.25,-2.6875 0,-5c4.75546,0.76087 7.19477,1.71252 10.1875,5.5625c2.88366,4.21338 4.94728,8.69764 6.8125,13.4375c0.66,0 1.32,0 2,0c-0.495,-0.94875 -0.99,-1.8975 -1.5,-2.875c-1.5,-3.125 -1.5,-3.125 -1.5,-5.125c-0.66,-0.33 -1.32,-0.66 -2,-1c-0.2475,-0.92812 -0.495,-1.85625 -0.75,-2.8125c-1.577,-4.02135 -3.55953,-5.10158 -7.25,-7.1875c0.33,-0.99 0.66,-1.98 1,-3c0.66,-0.33 1.32,-0.66 2,-1c0,-1.98 0,-3.96 0,-6c2.475,-0.99 2.475,-0.99 5,-2c-0.34031,-1.11375 -0.34031,-1.11375 -0.6875,-2.25c-0.3125,-2.75 -0.3125,-2.75 0.8125,-5.0625c1.875,-1.6875 1.875,-1.6875 4.5625,-1.9375c0.76312,0.0825 1.52625,0.165 2.3125,0.25c-0.06188,-1.25813 -0.12375,-2.51625 -0.1875,-3.8125c0.01398,-2.62832 0.03964,-3.91643 1.3125,-6.25c2.81043,-1.40521 4.90708,-0.66299 7.875,0.0625c2.0786,-2.26324 2.0786,-2.26324 3,-5c5.46326,-0.36422 5.46326,-0.36422 7.75,1.1875c1.49271,2.16443 2.38052,4.33781 3.25,6.8125c0.94875,-0.04125 1.8975,-0.0825 2.875,-0.125c3.125,0.125 3.125,0.125 5.125,2.125c0.125,3.625 0.125,3.625 0,7c-0.66,0 -1.32,0 -2,0c0,0.99 0,1.98 0,3c0.66,-0.33 1.32,-0.66 2,-1c1.32,0.99 2.64,1.98 4,3c-0.75,5.75 -0.75,5.75 -3,8c2.18669,2.60416 2.18669,2.60416 5,5c2.61765,0.20885 2.61765,0.20885 5,0c-0.04641,-0.70125 -0.09281,-1.4025 -0.14062,-2.125c-0.25162,-6.61389 0.35094,-11.35646 4.14062,-16.875c2,-2 2,-2 4.75,-2.6875c4.01948,0.85027 4.415,1.85155 6.625,5.1875c0.89548,1.48787 1.77706,2.98454 2.625,4.5c0.59813,-1.11375 1.19625,-2.2275 1.8125,-3.375c1.56446,-2.91313 2.28657,-3.69105 5.1875,-5.625c0.99,0 1.98,0 3,0c0.33,-0.66 0.66,-1.32 1,-2c0,0.66 0,1.32 0,2c1.95093,-0.10308 1.95093,-0.10308 4,-1c5.52913,-9.53844 4.60424,-21.87664 4.64049,-32.49673c0.0121,-3.25636 0.04954,-6.5116 0.09329,-9.76767c0.10406,-8.08129 0.17087,-16.16277 0.22893,-24.24451c0.04957,-6.84898 0.11835,-13.69719 0.21429,-20.54569c0.03702,-3.18665 0.04602,-6.37258 0.05419,-9.55941c0.18402,-19.25828 5.57166,-33.22593 19.06959,-47.41333c1.6483,-1.91354 2.68505,-3.67147 3.69922,-5.97266c-9.846,1.57574 -9.846,1.57574 -18,7c-0.75023,0.58975 -0.75023,0.58975 -1.51562,1.19141c-8.7032,6.88022 -13.58845,15.87868 -15.48438,26.80859c-0.55797,6.04051 -0.42603,12.11084 -0.33122,18.1698c0.04709,3.01685 0.06885,6.03302 0.08478,9.05019c0.03859,6.40613 0.11043,12.81169 0.18394,19.21751c0.08084,7.42911 0.14762,14.85807 0.19138,22.28749c0.0229,2.94798 0.06496,5.89525 0.10841,8.84299c0.13294,13.26837 -0.40564,25.65331 -7.23729,37.43202c-0.55986,0.02506 -1.11971,0.05011 -1.69653,0.07593c-2.53888,0.11611 -5.07741,0.23877 -7.61597,0.36157c-0.88107,0.03932 -1.76215,0.07863 -2.66992,0.11914c-1.27134,0.06284 -1.27134,0.06284 -2.56836,0.12695c-0.78029,0.03666 -1.56057,0.07332 -2.3645,0.11109c-2.27801,0.14657 -2.27801,0.14657 -5.08472,1.20532c-0.4241,-0.72445 -0.8482,-1.44891 -1.28516,-2.19531c-3.66712,-6.04472 -7.06714,-10.5401 -12.71484,-14.80469c0.35062,-0.61875 0.70125,-1.2375 1.0625,-1.875c0.30937,-0.70125 0.61875,-1.4025 0.9375,-2.125c-0.33,-0.66 -0.66,-1.32 -1,-2c1.32,0 2.64,0 4,0c0.78185,-3.46041 1.12784,-6.65867 1.13803,-10.20354c0.00545,-1.02736 0.01091,-2.05472 0.01653,-3.11322c0.00156,-1.67468 0.00156,-1.67468 0.00315,-3.38319c0.00509,-1.18436 0.01017,-2.36871 0.0154,-3.58896c0.01349,-3.24201 0.02288,-6.484 0.03142,-9.72602c0.01075,-3.40263 0.02933,-6.80521 0.04782,-10.2078c0.06178,-11.58205 0.11586,-23.1641 0.14902,-34.74626c0.0184,-6.40089 0.04741,-12.80164 0.088,-19.20242c0.02098,-3.38171 0.03652,-6.76324 0.03881,-10.14502c0.00492,-3.77908 0.02812,-7.55766 0.05532,-11.33665c-0.00301,-1.10633 -0.00602,-2.21266 -0.00911,-3.35252c0.09235,-8.67047 1.98461,-16.05364 5.42561,-23.9944c-6.95874,3.88395 -10.37786,9.56049 -13,17c-0.30033,2.52713 -0.30033,2.52713 -0.26501,5.18576c-0.00828,1.02328 -0.01655,2.04657 -0.02507,3.10086c0.00098,1.11182 0.00196,2.22363 0.00297,3.36914c-0.01025,1.76913 -0.01025,1.76913 -0.02071,3.57401c-0.01712,3.22736 -0.02567,6.45462 -0.03103,9.68203c-0.00821,3.38403 -0.02914,6.76797 -0.04921,10.15195c-0.04891,8.60371 -0.08126,17.20746 -0.11194,25.81125c-0.03312,9.28263 -0.06914,18.56519 -0.12413,27.84771c-0.01947,3.36538 -0.03474,6.73067 -0.04034,10.0961c-0.00745,3.75564 -0.02673,7.51106 -0.04842,11.26664c0.00098,1.10777 0.00196,2.21554 0.00297,3.35687c-0.0445,5.53465 -0.19337,10.39397 -2.29008,15.55768c-3.32153,2.21435 -4.19278,2.09286 -8,2c-3.51615,0.5494 -5.98127,2.17287 -9,4c-0.66,0 -1.32,0 -2,0c-0.33,0.99 -0.66,1.98 -1,3c-0.99,0.33 -1.98,0.66 -3,1c0.60865,-3.57452 1.61954,-6.6158 3.03136,-9.94688c2.45862,-6.6637 2.52206,-12.86158 2.46693,-19.90297c0.00383,-1.35485 0.00946,-2.70969 0.01672,-4.06452c0.01187,-2.8952 0.01153,-5.79004 0.00141,-8.68524c-0.01569,-4.58663 -0.0018,-9.1729 0.01604,-13.75951c0.03069,-8.9083 0.03232,-17.81649 0.03035,-26.72483c-0.0014,-11.34237 0.00909,-22.68465 0.04857,-34.02696c0.01486,-4.55093 0.01473,-9.10152 0.00253,-13.65245c-0.00474,-2.83905 0.00285,-5.67797 0.01354,-8.51699c0.00352,-1.92551 -0.00781,-3.85104 -0.01974,-5.77652c0.03662,-6.32536 0.53842,-11.76541 2.65135,-17.74971c0.80249,-2.37563 1.29295,-4.72867 1.74094,-7.19342c0.66,0 1.32,0 2,0c1.35712,-1.55856 1.35712,-1.55856 2.625,-3.5c0.44602,-0.64969 0.89203,-1.29938 1.35156,-1.96875c0.33774,-0.50531 0.67547,-1.01063 1.02344,-1.53125c-7.02029,2.88333 -11.52852,6.83983 -16,13c0,0.66 0,1.32 0,2c-0.66,0.33 -1.32,0.66 -2,1c-4.16114,7.99949 -4.57748,15.86846 -4.53003,24.71387c-0.00711,1.34001 -0.01599,2.68001 -0.02646,4.02c-0.02341,3.60518 -0.0229,7.20999 -0.01808,10.81523c0.00059,3.78841 -0.02216,7.57668 -0.04257,11.36502c-0.03529,7.16658 -0.05141,14.33306 -0.05978,21.49971c-0.01298,10.51596 -0.05135,21.03183 -0.0941,31.54771c-0.0047,1.15984 -0.0047,1.15984 -0.00951,2.34311c-0.00628,1.5422 -0.01262,3.08439 -0.01903,4.62659c-0.018,4.49981 -0.02915,8.99957 -0.0343,13.49941c-0.00291,2.12477 -0.00793,4.24953 -0.01377,6.3743c-0.0068,2.58402 -0.01003,5.16807 -0.00892,7.7521c-0.01953,5.58484 -0.13395,10.94414 -1.14345,16.44295c-3.96,-0.66 -7.92,-1.32 -12,-2c0,-44.88 0,-89.76 0,-136c0.99,-0.495 0.99,-0.495 2,-1c0.4143,-1.58814 0.82786,-3.17648 1.23828,-4.76562c1.60196,-4.69909 4.28007,-8.95306 6.76172,-13.23438c0.47438,-0.87141 0.94875,-1.74281 1.4375,-2.64062c1.65501,-2.49907 3.16631,-3.80236 5.625,-5.48438c2.76919,-1.90801 4.01865,-2.99672 5.9375,-5.875c1.78125,-0.5625 1.78125,-0.5625 4,-1c1.83957,-0.64926 3.6726,-1.31724 5.5,-2c9.12055,-3.40768 9.12055,-3.40768 13.5,-2zm-9,3c0.33,0.66 0.66,1.32 1,2c0.33,-0.66 0.66,-1.32 1,-2c-0.66,0 -1.32,0 -2,0zm85,79c-3.10482,4.02587 -5.51551,7.83206 -6,13c-0.66,0 -1.32,0 -2,0c0.0116,0.71027 0.0232,1.42055 0.03516,2.15234c0.00902,0.91911 0.01804,1.83821 0.02734,2.78516c0.0116,0.91652 0.0232,1.83305 0.03516,2.77734c-0.09766,2.28516 -0.09766,2.28516 -1.09766,3.28516c-0.0488,1.68679 -0.03633,3.37539 0,5.0625c0.05064,4.83016 -0.13374,9.58917 -0.47144,14.40723c-0.81554,12.27365 -1.01589,24.56555 -1.25097,36.86132c-0.0579,2.96782 -0.12759,5.93503 -0.20703,8.90235c-0.09693,3.62327 -0.17404,7.24644 -0.23683,10.87046c-0.027,1.37006 -0.06092,2.74001 -0.10202,4.10972c-0.05567,1.90328 -0.08341,3.80732 -0.10988,5.71122c-0.02363,1.07982 -0.04727,2.15963 -0.07161,3.27216c0.56121,3.49747 1.8977,4.4561 4.44978,6.80304c0.45652,4.2609 0.33573,7.35042 -2,11c0.99,-0.33 1.98,-0.66 3,-1c1.3944,-0.06665 2.7917,-0.08538 4.1875,-0.0625c1.25813,0.02062 2.51625,0.04125 3.8125,0.0625c0,-0.66 0,-1.32 0,-2c-0.77344,-0.55687 -0.77344,-0.55687 -1.5625,-1.125c-1.4375,-1.875 -1.4375,-1.875 -1.09268,-5.5383c0.21056,-1.44673 0.42893,-2.89234 0.65518,-4.3367c1.62982,-11.11782 2.28327,-21.89621 2.27439,-33.12768c-0.00098,-2.75138 0.01219,-5.50238 0.02899,-8.2537c0.04574,-7.80904 0.07089,-15.61804 0.07748,-23.42721c0.00503,-4.81024 0.02935,-9.62008 0.06533,-14.43018c0.00973,-1.81708 0.01216,-3.63422 0.00682,-5.45132c-0.0508,-18.12375 -0.0508,-18.12375 4.54699,-26.30991c0.50402,-0.91395 1.00805,-1.82789 1.52734,-2.76953c7.43424,-10.77037 7.43424,-10.77037 13.47266,-13.23047c0,-0.66 0,-1.32 0,-2c0.99,-0.33 1.98,-0.66 3,-1c-9.94802,-0.57255 -18.55639,5.98708 -25,13zm24.875,5.875c-12.31257,12.70629 -13.31034,24.95616 -13.09766,41.76563c0.0107,1.81304 0.01975,3.62609 0.02724,5.43914c0.02268,4.75565 0.06166,9.51099 0.106,14.26648c0.0704,7.59451 0.12585,15.189 0.16236,22.78375c0.01647,2.62873 0.04604,5.25708 0.0767,7.88569c0.10415,12.78525 -0.56237,24.89059 -5.14964,36.98431c-0.66,0 -1.32,0 -2,0c-0.35062,1.0725 -0.70125,2.145 -1.0625,3.25c-1.87649,4.49082 -4.63824,5.72205 -8.9375,7.75c0,0.33 0,0.66 0,1c0.67547,0.12117 1.35094,0.24234 2.04688,0.36719c1.33804,0.25136 1.33804,0.25136 2.70312,0.50781c1.32258,0.24363 1.32258,0.24363 2.67188,0.49219c2.4476,0.60077 4.38412,1.41278 6.57812,2.63281c0.93424,-3.01032 1.0445,-3.8665 0,-7c0.70125,-0.165 1.4025,-0.33 2.125,-0.5c6.87751,-3.58827 9.64612,-10.68549 12.11328,-17.69141c1.55669,-5.73978 1.8818,-11.34964 1.84351,-17.2749c-0.0046,-1.06783 -0.0046,-1.06783 -0.0093,-2.15724c-0.00711,-1.53752 -0.01648,-3.07502 -0.02789,-4.61251c-0.0176,-2.4606 -0.02776,-4.92113 -0.03592,-7.38177c-0.02423,-6.99432 -0.05921,-13.98854 -0.10463,-20.98276c-0.12478,-19.91553 -0.01214,-39.56973 2.09595,-59.39941c0.18983,-1.8884 0.37859,-3.7769 0.56616,-5.66553c0.14458,-1.44482 0.28918,-2.88965 0.43384,-4.33447c-1.34735,-0.11027 -1.34735,-0.11027 -3.125,1.875zm22.125,28.125c1,2 1,2 1,2l-1,-2zm-2,1c-9.68301,12.82344 -10.32225,26.12659 -10.15033,41.8021c0.02595,2.38785 0.03866,4.77547 0.04828,7.16345c0.02261,5.05325 0.0612,10.10631 0.10205,15.15945c0.0473,5.89575 0.08794,11.79139 0.11188,17.68728c0.01294,2.35057 0.03793,4.70081 0.06341,7.05128c0.00726,1.43366 0.01397,2.86732 0.02002,4.30099c0.01048,1.25097 0.02095,2.50193 0.03174,3.7908c-0.22705,3.04465 -0.22705,3.04465 -2.22705,6.04465c-0.26812,0.76313 -0.53625,1.52625 -0.8125,2.3125c-3.00576,6.80252 -7.89912,10.16101 -14.1875,13.6875c0.66,0.66 1.32,1.32 2,2c5.99118,0 10.57934,-4.77473 14.74219,-8.60156c8.57936,-9.0062 7.6985,-21.09972 7.69922,-32.72656c0.0118,-1.67854 0.02517,-3.35707 0.04002,-5.03559c0.036,-4.40038 0.05632,-8.80067 0.07155,-13.20117c0.02491,-7.0262 0.06514,-14.0522 0.1219,-21.07821c0.01607,-2.42918 0.02008,-4.85816 0.02301,-7.28739c0.10439,-22.54248 0.10439,-22.54248 4.30211,-32.06952c-0.66,-0.33 -1.32,-0.66 -2,-1zm-18,8c1,4 1,4 1,4l-1,-4zm-53,68c0.33,0.72188 0.66,1.44375 1,2.1875c1.00604,2.82947 1.16977,4.84145 1,7.8125c0.9075,-0.61875 1.815,-1.2375 2.75,-1.875c2.40944,-1.5754 4.67554,-2.88254 7.25,-4.125c-1.43429,-0.67354 -2.87257,-1.3386 -4.3125,-2c-0.80051,-0.37125 -1.60102,-0.7425 -2.42578,-1.125c-2.32386,-1.05541 -2.32386,-1.05541 -5.26172,-0.875zm-67,11c-3.81216,5.44594 -3.69806,11.56565 -4,18c2.12792,-2.96216 2.12792,-2.96216 3.375,-6.5c1.59176,-3.4284 2.29982,-4.83741 5.625,-6.5c2.4375,-0.5 2.4375,-0.5 5,0c3.04576,2.5612 4.73507,4.2052 6,8c0.42687,5.21178 0.42442,10.26661 -2,15c-2.375,1.25 -2.375,1.25 -5,2c-1.3405,0.65214 -2.67661,1.3138 -4,2c0.33,0.66 0.66,1.32 1,2c2.64047,0.48008 4.42292,0.31822 6.78516,-0.98437c4.4991,-3.4006 6.52242,-6.84314 7.84375,-12.30079c1.07425,-7.85898 -0.10692,-15.12565 -4.62891,-21.71484c-2.49914,-2.75767 -3.70093,-2.96194 -7.4375,-3.4375c-4.21703,0.51788 -5.66169,1.37553 -8.5625,4.4375zm3,17c0.33,0.66 0.66,1.32 1,2c0.66,-0.33 1.32,-0.66 2,-1c-0.99,-0.33 -1.98,-0.66 -3,-1zm41.25,6.875c-3.0922,5.25674 -3.63116,9.17537 -2.25,15.125c1.45724,3.33444 1.45724,3.33444 3,6c0.66,0 1.32,0 2,0c0,0.66 0,1.32 0,2c4.93657,2.46828 9.4045,4.15513 15,3c2.93981,-1.3321 5.5791,-2.85681 8,-5c0.33,-0.99 0.66,-1.98 1,-3c-0.33,-0.66 -0.66,-1.32 -1,-2c0.99,0 1.98,0 3,0c0.98512,-9.164 0.98512,-9.164 -2.6875,-17.1875c-4.86357,-4.55889 -9.33707,-5.26902 -15.875,-5.13281c-4.50416,0.59189 -7.18171,2.97482 -10.1875,6.19531zm-47.25,-4.875c1,4 1,4 1,4l-1,-4zm6,0c0,0.66 0,1.32 0,2c0.99,-0.33 1.98,-0.66 3,-1c-0.99,-0.33 -1.98,-0.66 -3,-1zm-5,4c1,3 1,3 1,3l-1,-3zm1,3c0.66,1.65 1.32,3.3 2,5c0.66,0 1.32,0 2,0c-1.30896,-3.12197 -1.30896,-3.12197 -4,-5zm105,9c3.28977,1.09659 4.71304,0.79953 8,0c-0.33,-0.66 -0.66,-1.32 -1,-2c-2.64653,0 -4.58082,0.9814 -7,2zm-3.6875,2.375c-2.66099,1.86988 -5.20816,2.70781 -8.3125,3.625c0.99,1.485 0.99,1.485 2,3c0.66,0 1.32,0 2,0c0.28875,0.59813 0.5775,1.19625 0.875,1.8125c1.17242,2.38078 1.17242,2.38078 3.125,5.1875c0.50878,-1.55966 1.00663,-3.12289 1.5,-4.6875c0.27844,-0.87012 0.55688,-1.74023 0.84375,-2.63672c0.65476,-2.6697 0.77456,-4.93975 0.65625,-7.67578c-1.23359,-0.10528 -1.23359,-0.10528 -2.6875,1.375zm-15.3125,19.625c0.2475,2.16562 0.2475,2.16562 0.5,4.375c0.25478,2.22931 0.5,4.38125 0.5,6.625c-7.2474,1.35121 -7.2474,1.35121 -10.8125,-0.3125c-0.72187,-0.55687 -1.44375,-1.11375 -2.1875,-1.6875c-0.99,-0.66 -1.98,-1.32 -3,-2c-0.03738,0.77086 -0.07477,1.54172 -0.11328,2.33594c-0.06574,1.00289 -0.13149,2.00578 -0.19922,3.03906c-0.08701,1.4966 -0.08701,1.4966 -0.17578,3.02344c-0.16887,0.85851 -0.33774,1.71703 -0.51172,2.60156c-3.51825,2.3455 -4.85776,2.57991 -9,2c-2.75,-2.375 -2.75,-2.375 -5,-5c-0.66,-0.66 -1.32,-1.32 -2,-2c-0.58008,0.84885 -0.58008,0.84885 -1.17187,1.71484c-0.52079,0.73348 -1.04157,1.46696 -1.57813,2.22266c-0.51047,0.7309 -1.02094,1.4618 -1.54687,2.21484c-1.92329,2.0865 -2.91809,2.54131 -5.70313,2.84766c-3.72962,-0.74592 -4.8879,-1.85676 -7.25,-4.875c-2.6322,-4.99906 -2.56807,-10.58533 -2.75,-16.125c-0.99,0.33 -1.98,0.66 -3,1c0.33,0.66 0.66,1.32 1,2c0.08342,1.44849 0.10733,2.90071 0.09766,4.35156c-0.00323,0.85078 -0.00645,1.70157 -0.00977,2.57813c-0.00838,0.88945 -0.01676,1.7789 -0.02539,2.69531c-0.00451,0.89719 -0.00902,1.79438 -0.01367,2.71875c-0.0118,2.21882 -0.02827,4.4375 -0.04883,6.65625c15.29231,4.44624 35.00477,1.58096 48.87891,-5.71875c5.79346,-3.49955 12.65296,-8.36503 16.12109,-14.28125c0,-0.99 0,-1.98 0,-3c-3.63,0 -7.26,0 -11,0zm-42,6c0,1.65 0,3.3 0,5c0.33,0 0.66,0 1,0c0,-1.65 0,-3.3 0,-5c-0.33,0 -0.66,0 -1,0zm-57,25c-1.30264,2.85302 -1.30264,2.85302 -0.22266,5.04297c0.57428,1.06154 0.57428,1.06154 1.16016,2.14453c0.38027,0.71543 0.76055,1.43086 1.15234,2.16797c0.30036,0.54269 0.60071,1.08539 0.91016,1.64453c0.28617,-0.59297 0.57234,-1.18594 0.86719,-1.79687c1.48722,-2.8924 3.3023,-5.51838 5.13281,-8.20313c-0.92813,0.02062 -1.85625,0.04125 -2.8125,0.0625c-3.1875,-0.0625 -3.1875,-0.0625 -6.1875,-1.0625zm12,2c0.61875,0.76313 1.2375,1.52625 1.875,2.3125c2.125,2.6875 2.125,2.6875 4.125,5.6875c0.2475,-0.61875 0.495,-1.2375 0.75,-1.875c1.25,-2.125 1.25,-2.125 5.25,-4.125c-5.94,-0.99 -5.94,-0.99 -12,-2zm13,3c0.66,1.98 1.32,3.96 2,6c1.54167,-1.37486 1.54167,-1.37486 3,-3c0,-0.66 0,-1.32 0,-2c-1.65,-0.33 -3.3,-0.66 -5,-1zm-18,39c-0.33,2.31 -0.66,4.62 -1,7c1.32,-0.33 2.64,-0.66 4,-1c-0.66,-1.98 -1.32,-3.96 -2,-6c-0.33,0 -0.66,0 -1,0zm-12,14c1,2 1,2 1,2l-1,-2zm-3,4c-0.99,1.485 -0.99,1.485 -2,3c0.99,-0.33 1.98,-0.66 3,-1c-0.33,-0.66 -0.66,-1.32 -1,-2zm-5,4c-0.33,0.66 -0.66,1.32 -1,2c0.66,0 1.32,0 2,0c-0.33,-0.66 -0.66,-1.32 -1,-2z" fill="#A98E49" id="svg_1" stroke="null"/>
  <path d="m162,280c3.75273,3.14182 6.60815,6.20109 7.30078,11.14844c0.0264,5.01582 -0.35904,8.59111 -3.30078,12.85156c-2.74899,2.22891 -4.57149,2.93004 -8.0625,3.5c-2.9375,-0.5 -2.9375,-0.5 -5.25,-2.8125c-3.46161,-5.51293 -3.45696,-11.34779 -2.6875,-17.6875c2.5557,-5.09233 6.277,-7.79856 12,-7zm-7,13c0.33,0.66 0.66,1.32 1,2c0.66,-0.33 1.32,-0.66 2,-1c-0.99,-0.33 -1.98,-0.66 -3,-1zm0,2c0,0.66 0,1.32 0,2c0.99,-0.33 1.98,-0.66 3,-1c-0.99,-0.33 -1.98,-0.66 -3,-1z" fill="#F4F4F4" id="svg_2"/>
  <path d="m126,254c1.98,1.32 3.96,2.64 6,4c0.66,-0.33 1.32,-0.66 2,-1c0.99,0.66 1.98,1.32 3,2c0.96451,5.66647 -1.53149,9.95466 -4,14.875c-0.38156,0.78375 -0.76312,1.5675 -1.15625,2.375c-0.93746,1.9218 -1.8892,3.83663 -2.84375,5.75c-0.99,-0.66 -1.98,-1.32 -3,-2c-0.33,0.66 -0.66,1.32 -1,2c-0.66,-0.33 -1.32,-0.66 -2,-1c-0.08717,-3.74985 -0.14045,-7.49945 -0.1875,-11.25c-0.02514,-1.06348 -0.05027,-2.12695 -0.07617,-3.22266c-0.00967,-1.0248 -0.01934,-2.04961 -0.0293,-3.10546c-0.01571,-0.94263 -0.03142,-1.88526 -0.04761,-2.85645c0.39675,-2.98853 1.35762,-4.34232 3.34058,-6.56543z" fill="#FAFAFA" id="svg_3"/>
  <path d="m159,283c0,0.66 0,1.32 0,2c0.99,0.33 1.98,0.66 3,1c2.52495,3.4552 2.2221,6.85412 2,11c-0.49633,3.06068 -0.75337,3.75337 -3,6c-1.31747,0.69749 -2.64914,1.3696 -4,2c-4.02964,-4.23629 -6,-6.90455 -6,-13c0.73192,-2.9069 1.72028,-5.25097 3,-8c2,-1 2,-1 5,-1zm-4,10c0.33,0.66 0.66,1.32 1,2c0.66,-0.33 1.32,-0.66 2,-1c-0.99,-0.33 -1.98,-0.66 -3,-1zm0,2c0,0.66 0,1.32 0,2c0.99,-0.33 1.98,-0.66 3,-1c-0.99,-0.33 -1.98,-0.66 -3,-1z" fill="#E0E1E1" id="svg_4"/>
  <path d="m153,291c2.25,-0.3125 2.25,-0.3125 5,0c3.09472,3.00875 4.76456,5.64435 5,10c-1.95216,1.95216 -3.532,2.84827 -6,4c-5.57143,-6.14286 -5.57143,-6.14286 -6,-11c0.66,0 1.32,0 2,0c0,-0.99 0,-1.98 0,-3zm2,2c0.33,0.66 0.66,1.32 1,2c0.66,-0.33 1.32,-0.66 2,-1c-0.99,-0.33 -1.98,-0.66 -3,-1zm0,2c0,0.66 0,1.32 0,2c0.99,-0.33 1.98,-0.66 3,-1c-0.99,-0.33 -1.98,-0.66 -3,-1z" fill="#E2E2E2" id="svg_5"/>
  <path d="m163,282c3,1 3,1 4.6875,3.5c2.10811,5.62162 2.11393,10.29606 0.0625,15.9375c-1.77487,2.59892 -2.81424,3.55017 -5.75,4.5625c0.18562,-0.78375 0.37125,-1.5675 0.5625,-2.375c0.69712,-2.5959 0.69712,-2.5959 -0.5625,-4.625c0.66,-0.33 1.32,-0.66 2,-1c0.18721,-7.56106 0.18721,-7.56106 -1,-15c0,-0.33 0,-0.66 0,-1z" fill="#FCFCFB" id="svg_6"/>
  <path d="m153,291c2.375,-0.125 2.375,-0.125 5,0c0.66,0.66 1.32,1.32 2,2c-0.375,2.625 -0.375,2.625 -1,5c-1.32,0.33 -2.64,0.66 -4,1c0,-0.66 0,-1.32 0,-2c-0.99,-0.33 -1.98,-0.66 -3,-1c0.33,-1.65 0.66,-3.3 1,-5zm2,2c0.33,0.66 0.66,1.32 1,2c0.66,-0.33 1.32,-0.66 2,-1c-0.99,-0.33 -1.98,-0.66 -3,-1zm0,2c0,0.66 0,1.32 0,2c0.99,-0.33 1.98,-0.66 3,-1c-0.99,-0.33 -1.98,-0.66 -3,-1z" fill="#F2F3F3" id="svg_7"/>
  <path d="m168,260c1.32,0.33 2.64,0.66 4,1c-1.65357,3.58273 -3.67981,6.80973 -6,10c-0.66,0 -1.32,0 -2,0c0,-0.66 0,-1.32 0,-2c-0.99,-0.33 -1.98,-0.66 -3,-1c1.65,0 3.3,0 5,0c-0.33,-1.65 -0.66,-3.3 -1,-5c0.99,0 1.98,0 3,0c0,-0.99 0,-1.98 0,-3z" fill="#EEEDEE" id="svg_8"/>
  <path d="m170,394c1.32,0.66 2.64,1.32 4,2c-0.11362,1.48008 -0.24123,2.9591 -0.375,4.4375c-0.06961,0.82371 -0.13922,1.64742 -0.21094,2.49609c-0.13664,0.68192 -0.27328,1.36383 -0.41406,2.06641c-0.99,0.495 -0.99,0.495 -2,1c-0.36237,-1.62319 -0.71465,-3.24864 -1.0625,-4.875c-0.19723,-0.90492 -0.39445,-1.80984 -0.59766,-2.74219c-0.33984,-2.38281 -0.33984,-2.38281 0.66016,-4.38281z" fill="#F1EFF0" id="svg_9"/>
  <path d="m171,369c0.78375,0.18562 1.5675,0.37125 2.375,0.5625c2.5959,0.69712 2.5959,0.69712 4.625,-0.5625c-0.1875,1.875 -0.1875,1.875 -1,4c-2.5625,1.25 -2.5625,1.25 -5,2c-0.33,-1.98 -0.66,-3.96 -1,-6z" fill="#EBE9EA" id="svg_10"/>
  <path d="m198,266c0.33,0.99 0.66,1.98 1,3c-3,1 -3,1 -6,1c-0.66,-0.33 -1.32,-0.66 -2,-1c0,-0.66 0,-1.32 0,-2c3.625,-2.125 3.625,-2.125 7,-1z" fill="#F2F1F2" id="svg_11"/>
  <path d="m175,271c0.66,1.32 1.32,2.64 2,4c-1.32,0.99 -2.64,1.98 -4,3c-0.66,-0.33 -1.32,-0.66 -2,-1c0.33,-0.99 0.66,-1.98 1,-3c0.66,0 1.32,0 2,0c0.33,-0.99 0.66,-1.98 1,-3z" fill="#F2F2F2" id="svg_12"/>
  <path d="m232,328c2.62343,2.62343 2,3.3361 2,7c-1.32,-0.66 -2.64,-1.32 -4,-2c0.66,-1.65 1.32,-3.3 2,-5z" fill="#F3F1F2" id="svg_13"/>
  <path d="m282,259c0.33,0 0.66,0 1,0c0,4.29 0,8.58 0,13c-0.33,0 -0.66,0 -1,0c0,-4.29 0,-8.58 0,-13z" fill="#FFFFFF" id="svg_14"/>
  <path d="m282,240c0.33,0 0.66,0 1,0c0,3.96 0,7.92 0,12c-0.33,0 -0.66,0 -1,0c0,-3.96 0,-7.92 0,-12z" fill="#FFFFFF" id="svg_15"/>
  <path d="m124,292c0.99,0.33 1.98,0.66 3,1c-0.99,0 -1.98,0 -3,0c0,-0.33 0,-0.66 0,-1z" fill="#FFFFFF" id="svg_16"/>
  <path d="m154,430c0.33,0.66 0.66,1.32 1,2c-0.66,-0.33 -1.32,-0.66 -2,-1c0.33,-0.33 0.66,-0.66 1,-1z" fill="#FFFFFF" id="svg_17"/>
  <path d="m268,306c0.66,0 1.32,0 2,0c-0.33,0.66 -0.66,1.32 -1,2c-0.33,-0.66 -0.66,-1.32 -1,-2z" fill="#FFFFFF" id="svg_18"/>
  <path d="m277,297c0.33,0.66 0.66,1.32 1,2c-0.66,-0.33 -1.32,-0.66 -2,-1c0.33,-0.33 0.66,-0.66 1,-1z" fill="#FFFFFF" id="svg_19"/>
  <path fill="#FFFFFF" id="svg_20"/>
  <path d="m141,261c0.33,0.66 0.66,1.32 1,2c-0.66,-0.33 -1.32,-0.66 -2,-1c0.33,-0.33 0.66,-0.66 1,-1z" fill="#FFFFFF" id="svg_21"/>
  <path d="m172,250c0.66,0.66 1.32,1.32 2,2c-0.66,0 -1.32,0 -2,0c0,-0.66 0,-1.32 0,-2z" fill="#FFFFFF" id="svg_22"/>
  <path fill="#FFFFFF" id="svg_23"/>
  <path fill="#FFFFFF" id="svg_24"/>
  <path d="m177,101c0.99,0.495 0.99,0.495 2,1c-0.99,0.495 -0.99,0.495 -2,1c0,-0.66 0,-1.32 0,-2z" fill="#FFFFFF" id="svg_25"/>
  <path d="m139,433c2,1 2,1 2,1l-2,-1z" fill="#FFFFFF" id="svg_26"/>
  <path d="m125,365c2,1 2,1 2,1l-2,-1z" fill="#FFFFFF" id="svg_27"/>
  <path d="m163,337c2,1 2,1 2,1l-2,-1z" fill="#FFFFFF" id="svg_28"/>
  <path fill="#FFFFFF" id="svg_29"/>
  <path fill="#FFFFFF" id="svg_30"/>
  <path fill="#FFFFFF" id="svg_31"/>
  <path d="m266,308c2,1 2,1 2,1l-2,-1z" fill="#FFFFFF" id="svg_32"/>
  <path fill="#FFFFFF" id="svg_33"/>
  <path d="m240,274c2,1 2,1 2,1l-2,-1z" fill="#FFFFFF" id="svg_34"/>
  <path fill="#FFFFFF" id="svg_35"/>
  <path fill="#FFFFFF" id="svg_36"/>
  <path d="m169,255c2,1 2,1 2,1l-2,-1z" fill="#FFFFFF" id="svg_37"/>
  <path d="m143,254c2,1 2,1 2,1l-2,-1z" fill="#FFFFFF" id="svg_38"/>
  <path d="m148,252c2,1 2,1 2,1l-2,-1z" fill="#FFFFFF" id="svg_39"/>
  <path fill="#FFFFFF" id="svg_40"/>
  <path fill="#FFFFFF" id="svg_41"/>
  <path fill="#FFFFFF" id="svg_42"/>
  <path fill="#FFFFFF" id="svg_43"/>
  <path d="m265,137c2,1 2,1 2,1l-2,-1z" fill="#FFFFFF" id="svg_44"/>
  <path fill="#FFFFFF" id="svg_45"/>
  <path d="m154,80c2,1 2,1 2,1l-2,-1z" fill="#FFFFFF" id="svg_46"/>
  <path fill="#FFFFFF" id="svg_47"/>
  <path fill="#FFFFFF" id="svg_48"/>
  <path fill="#FFFFFF" id="svg_49"/>
  <path fill="#FFFFFF" id="svg_50"/>
  <path fill="#FFFFFF" id="svg_51"/>
  <path fill="#FFFFFF" id="svg_52"/>
  <path fill="#FFFFFF" id="svg_53"/>
  <path fill="#FFFFFF" id="svg_54"/>
  <path fill="#FFFFFF" id="svg_55"/>
  <path fill="#FFFFFF" id="svg_56"/>
  <path fill="#FFFFFF" id="svg_57"/>
  <path fill="#FFFFFF" id="svg_58"/>
  <path fill="#FFFFFF" id="svg_59"/>
  <path fill="#FFFFFF" id="svg_60"/>
  <path fill="#FFFFFF" id="svg_61"/>
  <path fill="#FFFFFF" id="svg_62"/>
  <path fill="#FFFFFF" id="svg_63"/>
  <path fill="#FFFFFF" id="svg_64"/>
  <path fill="#FFFFFF" id="svg_65"/>
  <path fill="#FFFFFF" id="svg_66"/>
  <path fill="#FFFFFF" id="svg_67"/>
  <path fill="#FFFFFF" id="svg_68"/>
  <path fill="#FFFFFF" id="svg_69"/>
  <path fill="#FFFFFF" id="svg_70"/>
  <path fill="#FFFFFF" id="svg_71"/>
  <path fill="#FFFFFF" id="svg_72"/>
  <path fill="#FFFFFF" id="svg_73"/>
  <path fill="#FFFFFF" id="svg_74"/>
  <path fill="#FFFFFF" id="svg_75"/>
  <path fill="#FFFFFF" id="svg_76"/>
  <path fill="#FFFFFF" id="svg_77"/>
  <path fill="#FFFFFF" id="svg_78"/>
  <path fill="#FFFFFF" id="svg_79"/>
  <path fill="#FFFFFF" id="svg_80"/>
  <path fill="#FFFFFF" id="svg_81"/>
  <path fill="#FFFFFF" id="svg_82"/>
  <path fill="#FFFFFF" id="svg_83"/>
  <path fill="#FFFFFF" id="svg_84"/>
  <path fill="#FFFFFF" id="svg_85"/>
  <path fill="#FFFFFF" id="svg_86"/>
  <path fill="#FFFFFF" id="svg_87"/>
  <path fill="#FFFFFF" id="svg_88"/>
  <path fill="#FFFFFF" id="svg_89"/>
  <path fill="#FFFFFF" id="svg_90"/>
  <path fill="#FFFFFF" id="svg_91"/>
  <path fill="#FFFFFF" id="svg_92"/>
  <path fill="#FFFFFF" id="svg_93"/>
  <path fill="#FFFFFF" id="svg_94"/>
  <path fill="#FFFFFF" id="svg_95"/>
  <path fill="#FFFFFF" id="svg_96"/>
  <path fill="#FFFFFF" id="svg_97"/>
  <path fill="#FFFFFF" id="svg_98"/>
  <path fill="#FFFFFF" id="svg_99"/>
  <path fill="#FFFFFF" id="svg_100"/>
  <path fill="#FFFFFF" id="svg_101"/>
  <path fill="#FFFFFF" id="svg_102"/>
  <path fill="#FFFFFF" id="svg_103"/>
  <path fill="#FFFFFF" id="svg_104"/>
  <path fill="#FFFFFF" id="svg_105"/>
  <path fill="#FFFFFF" id="svg_106"/>
  <path fill="#FFFFFF" id="svg_107"/>
  <path fill="#FFFFFF" id="svg_108"/>
  <path fill="#FFFFFF" id="svg_109"/>
  <path fill="#FFFFFF" id="svg_110"/>
  <path fill="#FFFFFF" id="svg_111"/>
  <path fill="#FFFFFF" id="svg_112"/>
  <path fill="#FFFFFF" id="svg_113"/>
  <path fill="#FFFFFF" id="svg_114"/>
  <path fill="#FFFFFF" id="svg_115"/>
  <path fill="#FFFFFF" id="svg_116"/>
  <path fill="#FFFFFF" id="svg_117"/>
  <path fill="#FFFFFF" id="svg_118"/>
  <path fill="#FFFFFF" id="svg_119"/>
  <path fill="#FFFFFF" id="svg_120"/>
  <path fill="#FFFFFF" id="svg_121"/>
  <path fill="#FFFFFF" id="svg_122"/>
  <path fill="#FFFFFF" id="svg_123"/>
  <path fill="#FFFFFF" id="svg_124"/>
  <path fill="#FFFFFF" id="svg_125"/>
  <path fill="#FFFFFF" id="svg_126"/>
  <path fill="#FFFFFF" id="svg_127"/>
  <path fill="#FFFFFF" id="svg_128"/>
  <path fill="#FFFFFF" id="svg_129"/>
  <path fill="#FFFFFF" id="svg_130"/>
  <path fill="#FFFFFF" id="svg_131"/>
  <path fill="#FFFFFF" id="svg_132"/>
  <path fill="#FFFFFF" id="svg_133"/>
  <path fill="#FFFFFF" id="svg_134"/>
  <path fill="#FFFFFF" id="svg_135"/>
  <path fill="#FFFFFF" id="svg_136"/>
  <path fill="#FFFFFF" id="svg_137"/>
  <path fill="#FFFFFF" id="svg_138"/>
  <path fill="#FFFFFF" id="svg_139"/>
  <path fill="#FFFFFF" id="svg_140"/>
  <path fill="#FFFFFF" id="svg_141"/>
  <path fill="#FFFFFF" id="svg_142"/>
  <path fill="#FFFFFF" id="svg_143"/>
  <path fill="#FFFFFF" id="svg_144"/>
  <path fill="#FFFFFF" id="svg_145"/>
  <path fill="#FFFFFF" id="svg_146"/>
  <path fill="#FFFFFF" id="svg_147"/>
  <path fill="#FFFFFF" id="svg_148"/>
  <path fill="#FFFFFF" id="svg_149"/>
  <path fill="#FFFFFF" id="svg_150"/>
  <path fill="#FFFFFF" id="svg_151"/>
  <path fill="#FFFFFF" id="svg_152"/>
  <path fill="#FFFFFF" id="svg_153"/>
  <path fill="#FFFFFF" id="svg_154"/>
  <path fill="#FFFFFF" id="svg_155"/>
  <path fill="#FFFFFF" id="svg_156"/>
  <path fill="#FFFFFF" id="svg_157"/>
  <path fill="#FFFFFF" id="svg_158"/>
  <path fill="#FFFFFF" id="svg_159"/>
  <path fill="#FFFFFF" id="svg_160"/>
  <path fill="#FFFFFF" id="svg_161"/>
  <path fill="#FFFFFF" id="svg_162"/>
  <path fill="#FFFFFF" id="svg_163"/>
  <path fill="#FFFFFF" id="svg_164"/>
  <path fill="#FFFFFF" id="svg_165"/>
  <path fill="#FFFFFF" id="svg_166"/>
  <path fill="#FFFFFF" id="svg_167"/>
  <path fill="#FFFFFF" id="svg_168"/>
  <path fill="#FFFFFF" id="svg_169"/>
  <path fill="#FFFFFF" id="svg_170"/>
  <path fill="#FFFFFF" id="svg_171"/>
  <path fill="#FFFFFF" id="svg_172"/>
  <path fill="#FFFFFF" id="svg_173"/>
  <path fill="#FFFFFF" id="svg_174"/>
  <path fill="#FFFFFF" id="svg_175"/>
  <path fill="#FFFFFF" id="svg_176"/>
  <path fill="#FFFFFF" id="svg_177"/>
  <path fill="#FFFFFF" id="svg_178"/>
  <path fill="#FFFFFF" id="svg_179"/>
  <path fill="#FFFFFF" id="svg_180"/>
  <path fill="#FFFFFF" id="svg_181"/>
  <path fill="#FFFFFF" id="svg_182"/>
  <path fill="#FFFFFF" id="svg_183"/>
  <path fill="#FFFFFF" id="svg_184"/>
  <path fill="#FFFFFF" id="svg_185"/>
  <path fill="#FFFFFF" id="svg_186"/>
  <path fill="#FFFFFF" id="svg_187"/>
  <path fill="#FFFFFF" id="svg_188"/>
  <path fill="#FFFFFF" id="svg_189"/>
  <path fill="#FFFFFF" id="svg_190"/>
  <path fill="#FFFFFF" id="svg_191"/>
  <path fill="#FFFFFF" id="svg_192"/>
  <path fill="#FFFFFF" id="svg_193"/>
  <path fill="#FFFFFF" id="svg_194"/>
  <path fill="#FFFFFF" id="svg_195"/>
  <path fill="#FFFFFF" id="svg_196"/>
  <path fill="#FFFFFF" id="svg_197"/>
  <path fill="#FFFFFF" id="svg_198"/>
  <path fill="#FFFFFF" id="svg_199"/>
  <path fill="#FFFFFF" id="svg_200"/>
  <path fill="#FFFFFF" id="svg_201"/>
  <path fill="#FFFFFF" id="svg_202"/>
  <path fill="#FFFFFF" id="svg_203"/>
  <path fill="#FFFFFF" id="svg_204"/>
  <path fill="#FFFFFF" id="svg_205"/>
  <path fill="#FFFFFF" id="svg_206"/>
  <path fill="#FFFFFF" id="svg_207"/>
  <path fill="#FFFFFF" id="svg_208"/>
  <path fill="#FFFFFF" id="svg_209"/>
  <path fill="#FFFFFF" id="svg_210"/>
  <path fill="#FFFFFF" id="svg_211"/>
  <path fill="#FFFFFF" id="svg_212"/>
  <path fill="#FFFFFF" id="svg_213"/>
  <path fill="#FFFFFF" id="svg_214"/>
  <path fill="#FFFFFF" id="svg_215"/>
  <path fill="#FFFFFF" id="svg_216"/>
  <path fill="#FFFFFF" id="svg_217"/>
  <path fill="#FFFFFF" id="svg_218"/>
  <path fill="#FFFFFF" id="svg_219"/>
  <path fill="#FFFFFF" id="svg_220"/>
  <path fill="#FFFFFF" id="svg_221"/>
  <path fill="#FFFFFF" id="svg_222"/>
  <path fill="#FFFFFF" id="svg_223"/>
  <path fill="#FFFFFF" id="svg_224"/>
  <path fill="#FFFFFF" id="svg_225"/>
  <path fill="#FFFFFF" id="svg_226"/>
  <path fill="#FFFFFF" id="svg_227"/>
  <path fill="#FFFFFF" id="svg_228"/>
  <path fill="#FFFFFF" id="svg_229"/>
  <path fill="#FFFFFF" id="svg_230"/>
  <path fill="#FFFFFF" id="svg_231"/>
  <path fill="#FFFFFF" id="svg_232"/>
  <path fill="#FFFFFF" id="svg_233"/>
  <path fill="#FFFFFF" id="svg_234"/>
  <path fill="#FFFFFF" id="svg_235"/>
  <path fill="#FFFFFF" id="svg_236"/>
  <path fill="#FFFFFF" id="svg_237"/>
  <path fill="#FFFFFF" id="svg_238"/>
  <path fill="#FFFFFF" id="svg_239"/>
  <path fill="#FFFFFF" id="svg_240"/>
  <path fill="#FFFFFF" id="svg_241"/>
  <path fill="#FFFFFF" id="svg_242"/>
  <path fill="#FFFFFF" id="svg_243"/>
  <path fill="#FFFFFF" id="svg_244"/>
  <path fill="#FFFFFF" id="svg_245"/>
  <path fill="#FFFFFF" id="svg_246"/>
  <path fill="#FFFFFF" id="svg_247"/>
  <path fill="#FFFFFF" id="svg_248"/>
  <path fill="#FFFFFF" id="svg_249"/>
  <path fill="#FFFFFF" id="svg_250"/>
  <path fill="#FFFFFF" id="svg_251"/>
  <path fill="#FFFFFF" id="svg_252"/>
  <path fill="#FFFFFF" id="svg_253"/>
  <path fill="#FFFFFF" id="svg_254"/>
 
 </g>

</svg>
