<svg xmlns="http://www.w3.org/2000/svg" width="500" height="500" viewBox="0 0 500 500" version="1.1"><path d="M 156.744 74.164 C 153.261 75.378, 151.248 76.593, 151.648 77.240 C 152.037 77.869, 151.837 78.017, 151.163 77.601 C 149.628 76.652, 142.461 81.691, 137.147 87.456 C 131.138 93.975, 125.602 105.920, 125.696 112.163 C 125.765 116.742, 124.772 118.490, 123.658 115.750 C 123.379 115.063, 123.229 143.965, 123.325 179.977 C 123.500 245.454, 123.500 245.454, 128.401 246.275 C 131.673 246.824, 133.668 246.732, 134.401 245.999 C 135.170 245.232, 135.650 223.337, 136 173.201 C 136.500 101.544, 136.501 101.497, 138.742 96.641 C 139.975 93.969, 140.693 91.312, 140.337 90.737 C 139.982 90.162, 140.155 89.978, 140.722 90.328 C 141.288 90.678, 142.950 89.237, 144.413 87.126 C 145.876 85.014, 149.195 81.782, 151.787 79.945 C 154.379 78.107, 156.725 76.355, 157 76.051 C 157.275 75.748, 157.950 75.439, 158.500 75.365 C 159.050 75.291, 160.625 74.958, 162 74.624 C 163.375 74.291, 163.935 74.278, 163.244 74.595 C 162.553 74.912, 162.307 75.687, 162.696 76.318 C 163.749 78.021, 163.797 80.992, 162.761 80.352 C 162.268 80.047, 162.100 79.183, 162.388 78.431 C 163.373 75.864, 161.310 76.067, 158.782 78.786 C 154.884 82.979, 152.753 86.791, 153.568 88.111 C 154.007 88.821, 153.886 89.048, 153.271 88.667 C 152.173 87.989, 150.784 90.900, 149.058 97.500 C 148.378 100.096, 148.009 125.565, 148.006 170.078 C 148 238.655, 148 238.655, 145.500 244.808 C 142.408 252.418, 142.348 253.952, 145.250 251.267 C 148.932 247.860, 155.331 245.013, 160.010 244.700 C 164.360 244.408, 164.403 244.368, 165.677 239.453 C 166.652 235.693, 166.966 220.110, 166.981 174.779 C 167 115.057, 167 115.057, 169.410 109.779 C 172.563 102.873, 175.465 99.642, 181.193 96.661 C 183.774 95.318, 185.629 93.963, 185.316 93.649 C 183.567 91.900, 166.082 106.706, 167.393 108.826 C 167.655 109.252, 167.036 110.121, 166.016 110.758 C 164.356 111.795, 164.093 111.507, 163.503 108.015 C 162.781 103.745, 163.188 87.013, 164.013 87.005 C 164.296 87.002, 165.128 84.638, 165.863 81.750 C 168.501 71.381, 168.532 71.992, 165.367 72.079 C 163.790 72.122, 159.910 73.061, 156.744 74.164 M 186.500 93 C 186.160 93.550, 186.222 94, 186.637 94 C 187.053 94, 185.977 95.463, 184.247 97.250 C 182.518 99.037, 180.067 102.750, 178.801 105.500 C 176.500 110.500, 176.500 110.500, 176 174.545 C 175.530 234.743, 175.389 238.761, 173.646 241.419 C 172.457 243.233, 172.278 243.996, 173.146 243.549 C 173.891 243.165, 173.713 243.497, 172.750 244.286 C 170.308 246.287, 170.495 246.906, 174.761 250.942 C 176.830 252.899, 179.641 256.637, 181.009 259.250 C 183.334 263.689, 185 265.269, 185 263.035 C 185 262.496, 189.519 261.944, 195.224 261.785 C 205.449 261.500, 205.449 261.500, 208.190 253.500 C 210.931 245.500, 210.931 245.500, 210.977 196.319 C 211.020 150.253, 211.148 146.732, 212.997 140.747 C 215.749 131.835, 221.629 123.166, 228.104 118.476 C 231.072 116.325, 233.725 114.326, 234 114.033 C 234.275 113.740, 235.175 113.403, 236 113.284 C 240.527 112.633, 248.014 110.347, 247.453 109.787 C 247.095 109.429, 247.742 109.381, 248.890 109.681 C 251.280 110.306, 250.822 111.438, 246.815 114.809 C 242.505 118.436, 232.286 132.504, 229.437 138.732 C 228.024 141.821, 226.482 146.633, 226.010 149.424 C 225.538 152.216, 224.919 175.425, 224.635 201 C 224.121 247.247, 224.104 247.543, 221.595 255.486 C 220.207 259.878, 219.393 263.726, 219.786 264.036 C 221.791 265.621, 232.077 269.070, 233.034 268.479 C 233.641 268.104, 234.013 266.061, 233.860 263.941 C 233.707 261.820, 233.901 259.766, 234.291 259.376 C 234.681 258.986, 235 244.520, 235 227.230 C 235 197.200, 236.449 167.065, 237.944 166 C 238.576 165.550, 238.947 164.774, 240.097 161.500 C 241.144 158.516, 258 141.461, 258 143.385 C 258 143.640, 260.464 142.983, 263.475 141.924 C 269.558 139.786, 272.576 139.504, 273.493 140.989 C 273.843 141.555, 273.442 141.723, 272.552 141.382 C 271.696 141.053, 271 141.309, 271 141.952 C 271 142.593, 270.606 142.875, 270.125 142.577 C 268.764 141.736, 260.823 147.905, 261.616 149.188 C 262.012 149.829, 261.861 150.032, 261.263 149.663 C 258.475 147.939, 249.128 162.620, 247.678 171 C 247.345 172.925, 247 195.200, 246.910 220.500 C 246.820 245.800, 246.433 266.950, 246.049 267.500 C 245.664 268.050, 244.809 270.394, 244.147 272.709 C 242.978 276.799, 243.051 277.067, 246.722 282.209 C 250.294 287.212, 250.343 287.378, 247.615 285.250 C 244.251 282.626, 242.220 282.464, 237.490 284.440 C 235.376 285.323, 233.813 285.507, 233.448 284.915 C 233.120 284.385, 233.447 284.074, 234.176 284.225 C 234.904 284.376, 235.387 283.938, 235.250 283.250 C 235.112 282.563, 235.498 282, 236.107 282 C 236.716 282, 236.946 281.302, 236.618 280.448 C 236.277 279.558, 236.445 279.157, 237.011 279.507 C 239.111 280.805, 238.019 273.326, 235.828 271.405 C 234.431 270.180, 233.948 270.035, 234.475 271 C 235.140 272.219, 235.041 272.266, 233.947 271.250 C 232.307 269.728, 228 269.590, 228 271.059 C 228 271.641, 227.538 271.832, 226.972 271.483 C 226.407 271.134, 224.720 272.154, 223.222 273.750 C 220.500 276.651, 220.500 276.651, 220.398 271.818 C 220.139 259.459, 208.461 260.420, 204.498 273.127 C 203.527 276.238, 203.114 276.798, 203.067 275.066 C 203.030 273.727, 202.059 270.688, 200.909 268.312 C 198.697 263.742, 195.103 261.850, 192.095 263.672 C 189.379 265.317, 186.675 272.097, 186.409 277.930 C 186.192 282.700, 185.857 283.546, 184.078 283.820 C 182.935 283.995, 182 284.584, 182 285.129 C 182 285.673, 181.550 285.840, 181 285.500 C 180.450 285.160, 180 285.359, 180 285.941 C 180 286.523, 179.495 287, 178.878 287 C 178.102 287, 178.140 286.536, 179 285.500 C 179.995 284.301, 179.987 283.690, 178.962 282.454 C 178.257 281.604, 177.053 281.149, 176.288 281.443 C 175.522 281.737, 175.171 281.532, 175.507 280.989 C 175.843 280.445, 175.601 280, 174.970 280 C 174.339 280, 174.987 278.615, 176.411 276.923 C 177.835 275.231, 179 273.261, 179 272.546 C 179 270.245, 176.350 268.874, 173.346 269.623 C 170.794 270.259, 170.639 270.163, 171.849 268.694 C 173.762 266.372, 174.896 260.566, 173.815 258.634 C 172.664 256.577, 170.166 256.540, 167.949 258.546 C 166.374 259.972, 166.189 259.821, 165.588 256.618 C 165.230 254.706, 164.103 252.114, 163.086 250.857 C 161.463 248.853, 160.916 248.717, 158.645 249.752 C 157.221 250.401, 155.762 252.099, 155.404 253.526 C 154.927 255.425, 154.318 255.939, 153.127 255.446 C 149.217 253.828, 147.810 253.862, 145.868 255.619 C 144.279 257.057, 143.914 258.319, 144.284 261.083 C 144.733 264.431, 144.603 264.647, 142.378 264.221 C 138.628 263.505, 136.706 265.772, 137.301 270.209 C 137.771 273.709, 137.620 274, 135.346 274 C 133.738 274, 133.130 274.401, 133.595 275.155 C 134.038 275.870, 133.870 276.038, 133.155 275.595 C 131.672 274.679, 131.613 278.408, 133.067 281.125 C 133.960 282.793, 133.843 283.068, 132.353 282.809 C 129.825 282.370, 129.450 285.635, 131.879 286.935 C 133.332 287.713, 134.074 287.689, 134.594 286.848 C 135.038 286.130, 134.871 285.962, 134.155 286.405 C 133.520 286.797, 133 286.641, 133 286.059 C 133 284.580, 134.281 284.739, 136.559 286.502 C 138.177 287.755, 138.209 287.903, 136.750 287.395 C 134.760 286.702, 134.574 287.275, 135.982 289.764 C 136.522 290.719, 138.862 295.550, 141.180 300.500 C 143.499 305.450, 145.600 309.927, 145.848 310.450 C 146.097 310.972, 144.488 309.494, 142.273 307.166 C 140.058 304.838, 137.456 300.863, 136.489 298.333 C 134.459 293.017, 127.922 286, 125 286 C 122.165 286, 122.437 289.361, 125.400 290.947 C 130.452 293.650, 131.542 298.986, 130.706 316.908 C 130.426 322.893, 132.579 323.428, 133.243 317.539 C 134.075 310.152, 137.696 307.796, 141.595 312.105 C 142.960 313.613, 143.500 315.701, 143.500 319.469 C 143.500 324.728, 143.500 324.728, 153 329.614 C 158.225 332.301, 163.058 334.438, 163.739 334.363 C 164.421 334.288, 164.708 334.663, 164.378 335.197 C 164.037 335.749, 164.785 336.024, 166.112 335.834 C 169.444 335.357, 171.704 328.515, 173.071 314.769 C 174.227 303.140, 174.805 300.898, 176.821 300.226 C 177.667 299.944, 177.998 302.327, 177.992 308.667 C 177.983 320.097, 176.474 329.370, 173.710 334.997 C 169.460 343.644, 163.933 344.003, 152.438 336.377 C 146.015 332.117, 133.971 327.200, 126.250 325.687 C 123 325.050, 123 325.050, 123 344.025 C 123 354.461, 123.338 363, 123.750 363.001 C 133.362 363.012, 165.269 368.088, 167.263 369.923 C 167.682 370.309, 167.376 372.397, 166.583 374.563 C 165.309 378.042, 165.133 378.190, 165.070 375.832 C 164.976 372.244, 163.993 369.886, 162.879 370.575 C 162.378 370.885, 162.269 371.627, 162.638 372.224 C 163.048 372.887, 162.841 373.020, 162.106 372.565 C 161.185 371.996, 161.177 371.491, 162.074 370.411 C 163.014 369.278, 162.858 369, 161.277 369 C 158.876 369, 156.027 371.968, 155.924 374.579 C 155.876 375.786, 155.394 375.245, 154.626 373.123 C 153.954 371.266, 152.364 368.903, 151.091 367.873 C 148.625 365.876, 146.479 365.349, 147.493 366.989 C 147.829 367.532, 147.478 367.737, 146.712 367.443 C 144.735 366.684, 143.068 369.093, 142.076 374.143 C 141.605 376.540, 141.170 377.465, 141.110 376.200 C 140.881 371.398, 135.858 365, 132.316 365 C 129.949 365, 127.071 369.325, 125.871 374.685 C 125.090 378.177, 124.377 379.622, 123.848 378.788 C 123.280 377.893, 123.026 377.860, 123.015 378.679 C 122.972 382.039, 130.252 384.417, 139 383.901 C 140.925 383.787, 146.209 384.467, 150.742 385.411 C 155.275 386.356, 159.507 386.805, 160.146 386.410 C 160.870 385.963, 161.039 386.127, 160.595 386.845 C 159.902 387.968, 161.547 388.463, 165.092 388.198 C 166.472 388.095, 166.566 388.839, 165.795 393.754 C 165.306 396.875, 164.667 399.666, 164.377 399.957 C 164.086 400.248, 161.970 400.939, 159.674 401.493 C 156.411 402.280, 155.427 403.015, 155.166 404.861 C 154.982 406.160, 155.207 406.991, 155.666 406.709 C 156.125 406.427, 156.548 407.502, 156.606 409.098 C 156.665 410.694, 156.364 412, 155.938 412 C 155.512 412, 154.399 412.293, 153.465 412.652 C 152.012 413.209, 151.928 413.003, 152.884 411.217 C 153.498 410.070, 154 407.691, 154 405.930 C 154 402.728, 154 402.728, 149.500 403.345 C 145 403.962, 145 403.962, 145 397.981 C 145 392.298, 144.878 392, 142.546 392 C 140.217 392, 140.073 392.345, 139.742 398.750 C 139.392 405.500, 139.392 405.500, 139.196 398.750 C 139 392, 139 392, 131 392 C 123 392, 123 392, 123 411.535 C 123 430.454, 123.060 431.038, 124.910 430.048 C 128.528 428.112, 133.310 422.531, 135.642 417.521 C 136.928 414.759, 137.985 413.008, 137.990 413.628 C 138.005 415.310, 135.018 422.148, 133.022 425 C 132.060 426.375, 131.397 428.290, 131.549 429.255 C 131.700 430.220, 131.407 430.751, 130.896 430.436 C 130.385 430.120, 130.217 429.458, 130.522 428.965 C 130.827 428.471, 129.259 429.257, 127.038 430.711 C 123.086 433.299, 123 433.479, 123 439.178 C 123 445.776, 123.943 446.379, 128.615 442.773 C 132.354 439.888, 133.963 437.750, 133.257 436.607 C 132.946 436.103, 133.191 436, 133.802 436.377 C 134.413 436.755, 135.618 435.987, 136.482 434.668 C 137.669 432.856, 139.268 432.128, 143.046 431.681 C 145.793 431.356, 150.409 430.343, 153.305 429.430 C 158.569 427.771, 158.569 427.771, 163.480 430.885 C 169.867 434.936, 171 434.869, 171 430.441 C 171 428.484, 170.662 427.091, 170.250 427.345 C 169.838 427.600, 169.500 426.052, 169.500 423.905 C 169.500 421.757, 169.780 420, 170.121 420 C 170.463 420, 171.043 417.734, 171.410 414.965 C 171.778 412.196, 172.459 410.165, 172.924 410.453 C 173.389 410.740, 174.087 407.944, 174.476 404.238 C 174.864 400.532, 176.249 391.693, 177.554 384.595 C 178.859 377.497, 179.691 371.309, 179.404 370.845 C 179.117 370.380, 179.410 370, 180.054 370 C 180.784 370, 181.063 368.886, 180.794 367.053 C 180.557 365.432, 180.730 364.333, 181.181 364.612 C 181.631 364.890, 182 363.768, 182 362.118 C 182 357.251, 183.751 357.575, 186.473 362.946 C 193.103 376.030, 193.638 387.194, 188.435 403.903 C 187.711 406.228, 187.816 406.285, 191.704 405.663 C 199.595 404.402, 208.605 401.005, 215.250 396.788 C 218.963 394.432, 222 392.140, 222 391.693 C 222 391.247, 221.480 391.203, 220.845 391.595 C 220.146 392.028, 219.962 391.871, 220.378 391.198 C 220.755 390.587, 221.677 390.323, 222.427 390.610 C 223.223 390.916, 225.392 389.231, 227.645 386.559 C 232.919 380.303, 242.129 364.795, 241.520 363.198 C 241.246 362.482, 241.408 362.134, 241.879 362.425 C 242.350 362.716, 243.653 360.152, 244.775 356.727 C 246.815 350.500, 246.815 350.500, 265.909 350 C 276.411 349.725, 285.002 349.765, 285.001 350.089 C 285.001 350.414, 286.107 351.183, 287.459 351.800 C 288.812 352.416, 291.150 354.780, 292.654 357.054 C 295.094 360.740, 295.523 361.005, 296.620 359.505 C 298.603 356.793, 300.324 344.766, 299.790 337.353 C 299.218 329.420, 295.743 321.533, 290.336 315.896 C 286.880 312.292, 286.880 312.292, 289.022 308.183 C 290.200 305.923, 290.832 303.538, 290.427 302.882 C 289.983 302.164, 290.116 301.954, 290.763 302.354 C 292.048 303.147, 294.421 293.343, 295.957 280.901 C 296.571 275.925, 296.923 257.179, 296.793 236.401 C 296.564 200.012, 296.757 197.347, 300.577 184.250 C 301.128 182.360, 300.855 182.006, 298.867 182.040 C 295.272 182.101, 285.970 186.427, 281.662 190.041 C 279.551 191.812, 276.459 195.115, 274.791 197.381 C 271.759 201.500, 271.759 201.500, 272.326 186 C 273.016 167.128, 275.636 153.864, 281.429 139.916 C 281.982 138.583, 281.116 138.296, 275.987 138.111 C 269.541 137.879, 259 140.346, 259 142.087 C 259 142.654, 258.616 142.881, 258.146 142.590 C 256.562 141.611, 248.192 147.815, 244.082 153.016 C 240.310 157.787, 239.565 159.247, 239.882 161.250 C 239.947 161.662, 239.583 162, 239.073 162 C 238.564 162, 237.941 162.787, 237.689 163.750 C 237.438 164.713, 237.188 163.250, 237.133 160.500 C 236.933 150.346, 241.481 134.286, 248.887 119 C 251.418 113.775, 253.649 109.139, 253.846 108.697 C 254.042 108.255, 251.569 108.030, 248.351 108.197 C 243.925 108.426, 242.575 108.846, 242.806 109.919 C 243.057 111.079, 242.835 111.108, 241.593 110.077 C 239.773 108.566, 233.098 110.483, 223.500 115.272 C 215.602 119.214, 202.296 132.486, 198.710 140 C 194.451 148.925, 193 163.429, 193 197.074 C 193 229.526, 191.994 241.751, 188.381 253.189 C 187.023 257.485, 185.820 261, 185.706 261 C 185.074 261.001, 186.282 145.228, 187.037 133.500 C 188.156 116.109, 189.729 102.520, 191.120 98.209 C 191.704 96.399, 191.930 94.261, 191.623 93.459 C 190.987 91.804, 187.436 91.486, 186.500 93 M 268.265 161.492 C 265.529 164.562, 261.987 169.645, 260.395 172.787 C 257.500 178.500, 257.500 178.500, 256.974 228 C 256.559 267.053, 256.158 278.133, 255.071 280.500 C 254.313 282.150, 253.562 284.163, 253.402 284.973 C 253.242 285.783, 252.412 286.957, 251.556 287.583 C 250.700 288.209, 250 289.424, 250 290.284 C 250 292.845, 244.905 298.116, 240.558 300.052 C 236.500 301.860, 236.500 301.860, 242 301.830 C 248.316 301.796, 252.359 303.104, 253.942 305.695 C 254.842 307.167, 255.002 306.713, 254.810 303.238 C 254.600 299.452, 254.964 298.654, 258.070 296.093 C 262.373 292.547, 266.431 285.272, 268.484 277.425 C 270.021 271.552, 270.332 255.961, 269.610 221 C 269.229 202.600, 270.680 173.648, 272.438 164.570 C 273.282 160.208, 273.808 156.475, 273.607 156.274 C 273.406 156.073, 271.002 158.421, 268.265 161.492 M 290.508 189.448 C 287.583 192.444, 284.662 196.494, 284.017 198.448 C 283.372 200.401, 282.542 202, 282.172 202 C 281.057 202, 280.913 205.992, 280.641 244.500 C 280.497 264.850, 280.009 283.750, 279.558 286.500 C 278.530 292.761, 276.067 297.720, 272.019 301.677 C 268.631 304.990, 260.466 309.784, 257.393 310.265 C 256.352 310.428, 254.236 311.833, 252.690 313.386 C 250.697 315.389, 249.180 316.076, 247.471 315.750 C 246.145 315.496, 245.298 315.674, 245.589 316.144 C 245.880 316.615, 245.382 317, 244.482 317 C 243.356 317, 243.847 317.842, 246.056 319.700 C 247.821 321.186, 249.834 323.753, 250.529 325.406 C 251.792 328.411, 251.792 328.411, 252.918 324.456 C 253.537 322.280, 254.314 318.630, 254.645 316.345 C 255.233 312.279, 255.344 312.177, 259.873 311.551 C 272.755 309.770, 282.847 301.319, 286.185 289.515 C 286.944 286.831, 287.353 271.408, 287.417 243 C 287.514 200.500, 287.514 200.500, 290.235 194.677 C 292.110 190.664, 293.351 189.082, 294.228 189.588 C 294.928 189.991, 295.158 189.944, 294.741 189.485 C 294.323 189.025, 294.964 187.602, 296.165 186.324 C 297.464 184.942, 297.838 184, 297.088 184 C 296.394 184, 293.433 186.451, 290.508 189.448 M 177.374 218.500 C 177.376 224.550, 177.541 226.896, 177.740 223.713 C 177.939 220.531, 177.937 215.581, 177.736 212.713 C 177.535 209.846, 177.372 212.450, 177.374 218.500 M 129.454 243.730 C 130.920 244.498, 132.655 244.909, 133.310 244.642 C 133.964 244.376, 133.600 244.115, 132.500 244.064 C 131.065 243.996, 130.864 243.738, 131.789 243.151 C 132.615 242.627, 131.948 242.333, 129.934 242.333 C 126.789 242.333, 126.789 242.333, 129.454 243.730 M 123.918 258.153 C 123.413 259.097, 123 264.398, 123 269.934 C 123 279.586, 123.999 282.557, 125.628 277.750 C 126.349 275.622, 126.422 275.662, 126.985 278.500 C 127.562 281.410, 127.705 281.276, 131.777 274 C 136.021 266.418, 137.744 261.013, 136.540 259.065 C 135.707 257.716, 132 257.663, 132 259 C 132 260.784, 130.248 260.056, 129.724 258.054 C 129.093 255.640, 125.228 255.706, 123.918 258.153 M 169.341 261.687 C 168.986 262.684, 168.060 264.243, 167.283 265.151 C 166.506 266.059, 166.258 267.041, 166.733 267.335 C 167.738 267.956, 170.096 266.682, 170.335 265.388 C 170.426 264.900, 170.744 264.581, 171.042 264.681 C 171.341 264.780, 171.650 264.002, 171.729 262.950 C 171.923 260.367, 170.145 259.426, 169.341 261.687 M 191.863 265.803 C 192.972 266.580, 192.981 266.840, 191.914 267.195 C 190.942 267.519, 191.017 267.792, 192.202 268.247 C 193.305 268.671, 193.728 268.356, 193.564 267.235 C 193.433 266.340, 192.690 265.437, 191.913 265.228 C 190.737 264.911, 190.728 265.008, 191.863 265.803 M 195 266.031 C 195 266.564, 195.477 267, 196.059 267 C 196.641 267, 196.886 267.375, 196.603 267.833 C 196.320 268.292, 196.700 268.667, 197.449 268.667 C 198.197 268.667, 198.592 268.101, 198.327 267.411 C 197.726 265.845, 195 264.715, 195 266.031 M 213.250 266.218 C 213.401 266.953, 212.419 267.405, 210.776 267.357 C 209.279 267.313, 208.280 267.645, 208.559 268.095 C 208.837 268.545, 209.798 268.631, 210.696 268.286 C 211.908 267.821, 212.113 268.026, 211.492 269.080 C 211.032 269.861, 211.623 269.652, 212.805 268.616 C 213.986 267.580, 214.712 266.343, 214.417 265.866 C 213.637 264.603, 212.960 264.807, 213.250 266.218 M 206.491 270.825 C 206.762 271.095, 206.515 271.880, 205.943 272.569 C 205.208 273.455, 205.283 274.042, 206.201 274.571 C 206.916 274.983, 207.162 274.948, 206.748 274.491 C 206.334 274.035, 206.673 272.913, 207.502 271.998 C 208.842 270.517, 208.842 270.333, 207.504 270.333 C 206.677 270.333, 206.221 270.554, 206.491 270.825 M 154.144 274.532 C 146.443 281.012, 146.091 298.713, 153.506 306.575 C 163.839 317.531, 176.799 300.582, 171.645 282.851 C 170.766 279.827, 169.147 276.538, 168.047 275.542 C 166.947 274.547, 166.219 273.454, 166.430 273.114 C 166.640 272.773, 164.662 272.364, 162.034 272.205 C 158.089 271.965, 156.712 272.371, 154.144 274.532 M 171.496 273.007 C 171.153 273.561, 171.607 274.296, 172.504 274.640 C 174.471 275.395, 176.731 273.570, 175.087 272.554 C 174.489 272.184, 174 272.359, 174 272.941 C 174 273.523, 173.523 274, 172.941 274 C 172.359 274, 172.160 273.550, 172.500 273 C 172.840 272.450, 172.893 272, 172.618 272 C 172.343 272, 171.838 272.453, 171.496 273.007 M 232.447 272.915 C 232.758 273.418, 232.459 274.014, 231.782 274.239 C 231.105 274.465, 231.545 274.909, 232.758 275.227 C 234.676 275.728, 234.832 275.555, 233.947 273.902 C 233.388 272.856, 232.694 272, 232.406 272 C 232.118 272, 232.136 272.412, 232.447 272.915 M 134.923 276.281 C 134.881 276.402, 134.693 277.313, 134.504 278.306 C 134.211 279.845, 134.407 279.924, 135.830 278.839 C 136.749 278.139, 137.632 277.494, 137.793 277.407 C 137.954 277.319, 137.392 276.981, 136.543 276.655 C 135.694 276.329, 134.966 276.161, 134.923 276.281 M 158.248 280.826 C 157.332 281.407, 157.780 282.373, 159.916 284.420 C 161.523 285.959, 163.282 286.944, 163.825 286.608 C 164.411 286.246, 164.613 286.913, 164.320 288.249 C 163.909 290.125, 164.023 290.250, 165.008 289 C 166.032 287.699, 166.118 287.723, 165.653 289.179 C 165.358 290.102, 164.815 292.470, 164.445 294.440 C 164.076 296.410, 163.352 298.282, 162.838 298.600 C 162.278 298.946, 162.343 299.709, 163 300.500 C 163.759 301.414, 163.774 302.022, 163.049 302.470 C 162.472 302.826, 162.018 303.879, 162.041 304.809 C 162.070 306.018, 162.924 305.514, 165.041 303.038 C 168.153 299.397, 168.752 297.833, 166.875 298.250 C 166.256 298.387, 165.615 297.926, 165.450 297.225 C 165.285 296.524, 165.385 296.430, 165.672 297.017 C 166.517 298.743, 169 296.076, 169 293.443 C 169 288.645, 164.418 280.975, 161.576 281.015 C 160.876 281.025, 160.850 281.288, 161.500 281.765 C 162.050 282.169, 162.568 283.319, 162.651 284.320 C 162.796 286.081, 162.743 286.081, 161.045 284.320 C 160.079 283.319, 159.497 281.938, 159.751 281.250 C 160.286 279.805, 159.987 279.721, 158.248 280.826 M 202.260 282.547 C 200.703 284.239, 202.363 285.456, 204.555 284.229 C 205.835 283.513, 205.883 283.151, 204.813 282.275 C 203.860 281.495, 203.160 281.570, 202.260 282.547 M 150.399 288.547 C 149.486 292.186, 150.384 292.471, 151.708 288.962 C 152.323 287.333, 152.424 286, 151.932 286 C 151.440 286, 150.750 287.146, 150.399 288.547 M 230.417 290.361 C 230.873 291.762, 230.636 292.074, 229.459 291.623 C 228.573 291.283, 228.157 291.445, 228.498 291.997 C 229.165 293.076, 232.356 292.873, 232.750 291.727 C 232.887 291.327, 232.713 291.038, 232.362 291.085 C 232.011 291.132, 231.293 290.570, 230.767 289.835 C 230.068 288.859, 229.974 289, 230.417 290.361 M 243.675 293.250 C 242.153 294.364, 242.268 294.513, 244.734 294.623 C 246.255 294.691, 246.935 294.540, 246.244 294.288 C 245.553 294.036, 245.242 293.418, 245.553 292.915 C 246.330 291.656, 245.697 291.769, 243.675 293.250 M 200.242 296.312 C 198.450 297.515, 196.033 300.443, 194.870 302.818 C 187.940 316.971, 203.042 331.371, 217.227 324.139 C 219.379 323.042, 221.314 322.631, 221.939 323.139 C 222.653 323.718, 222.687 323.621, 222.043 322.843 C 221.408 322.075, 221.732 320.781, 223.008 318.988 C 225.598 315.351, 226.493 309.023, 225.039 304.619 C 224.386 302.640, 222.014 299.456, 219.748 297.516 C 215.999 294.307, 215.109 294.005, 209.570 294.062 C 205.059 294.108, 202.663 294.686, 200.242 296.312 M 150.032 296.800 C 149.977 299.028, 152.927 303.891, 155.010 305.006 C 156.226 305.656, 157 305.694, 157 305.103 C 157 304.570, 156.100 303.849, 155 303.500 C 153.900 303.151, 153 302.082, 153 301.124 C 153 299.078, 150.080 294.824, 150.032 296.800 M 249 331.110 C 247.512 332.991, 240.163 335.168, 241.246 333.406 C 241.553 332.908, 240.566 332.456, 239.054 332.401 C 236.330 332.303, 236.318 332.330, 237.796 335.292 C 239.694 339.098, 238.464 343.011, 234.819 344.758 C 231.739 346.234, 227.849 345.130, 224.250 341.759 C 222 339.651, 222 339.651, 222 344.191 C 222 355.765, 211.932 357.291, 206.248 346.579 C 205.313 344.816, 205.086 344.939, 203.494 348.079 C 200.758 353.475, 198.971 355, 195.385 355 C 189.386 355, 185.018 347.952, 185.006 338.250 C 185.001 334.996, 184.619 334, 183.375 334 C 182.088 334, 181.880 334.651, 182.375 337.125 C 182.719 338.844, 183 344.045, 183 348.684 C 183 354.052, 183.364 356.893, 184 356.500 C 184.550 356.160, 185 356.246, 185 356.691 C 185 358.182, 210.144 357.345, 217.387 355.613 C 230.889 352.383, 244.441 342.783, 249.611 332.786 C 251.425 329.278, 251.117 328.432, 249 331.110 M 230.441 331.096 C 230.068 331.699, 230.417 332.845, 231.215 333.644 C 232.484 334.912, 232.667 334.906, 232.667 333.592 C 232.667 332.765, 232.215 332.367, 231.663 332.708 C 231.066 333.078, 230.918 332.656, 231.299 331.664 C 232.018 329.789, 231.472 329.427, 230.441 331.096 M 195.328 340.500 C 195.333 344.350, 195.513 345.802, 195.730 343.728 C 195.946 341.653, 195.943 338.503, 195.722 336.728 C 195.501 334.952, 195.324 336.650, 195.328 340.500 M 217.286 347.250 C 217.535 347.938, 217.010 349.400, 216.120 350.500 C 214.523 352.471, 214.531 352.474, 216.683 350.656 C 217.883 349.642, 218.622 348.179, 218.326 347.406 C 217.659 345.668, 216.659 345.518, 217.286 347.250 M 171.079 369.816 C 170.952 373.532, 172.682 375.896, 175.071 375.271 C 176.469 374.906, 176.773 374.478, 175.981 373.988 C 175.074 373.428, 175.068 372.692, 175.952 370.877 C 176.986 368.755, 176.958 368.688, 175.695 370.250 C 173.942 372.417, 172.581 372.534, 173.382 370.448 C 173.709 369.594, 173.571 369.147, 173.074 369.454 C 172.577 369.761, 171.943 369.447, 171.664 368.756 C 171.386 368.065, 171.122 368.542, 171.079 369.816 M 170.858 397.475 C 170.627 397.707, 170.611 399.717, 170.823 401.942 C 171.280 406.729, 173 406.380, 173 401.500 C 173 398.429, 171.925 396.409, 170.858 397.475 M 144.676 407.658 C 144.304 408.029, 144 409.833, 144 411.667 C 144 414.333, 144.400 415, 146 415 C 147.100 415, 147.993 414.887, 147.985 414.750 C 147.876 412.938, 145.178 407.155, 144.676 407.658 M 162.531 416.293 C 162.103 417.279, 162.034 418.367, 162.376 418.710 C 163.392 419.725, 164.211 418.299, 163.743 416.328 C 163.329 414.581, 163.275 414.580, 162.531 416.293 M 139.240 426.772 C 137.776 429.873, 137.679 431, 138.875 431 C 139.674 431, 141.368 425.035, 140.746 424.413 C 140.599 424.266, 139.921 425.328, 139.240 426.772" stroke="none" fill="#faf8f7" fill-rule="evenodd"/></svg>